<svg width="20" height="20" viewBox="0 0 20 20" fill="none" xmlns="http://www.w3.org/2000/svg">
<path fill-rule="evenodd" clip-rule="evenodd" d="M9.99984 2.49998C6.54244 2.49998 3.33317 4.77828 3.33317 8.33331C3.33317 9.64198 3.65685 10.6074 4.23527 11.3795C4.82486 12.1664 5.73105 12.8219 7.0134 13.4089L7.69367 13.7204L7.45707 14.4302C7.11758 15.4487 6.54148 16.3842 5.95947 17.1536C7.9704 16.5219 10.5971 15.5447 12.4543 14.3066C14.2958 13.0789 15.3306 12.1127 15.9157 11.2125C16.4796 10.3449 16.6665 9.4758 16.6665 8.33331C16.6665 4.77828 13.4572 2.49998 9.99984 2.49998ZM1.6665 8.33331C1.6665 3.55501 5.95723 0.833313 9.99984 0.833313C14.0424 0.833313 18.3332 3.55501 18.3332 8.33331C18.3332 9.69083 18.1034 10.905 17.3131 12.1208C16.5441 13.3039 15.2873 14.421 13.3788 15.6934C10.8983 17.347 7.30475 18.5193 5.24794 19.1067C4.57204 19.2997 4.03363 18.9032 3.80186 18.4901C3.57357 18.0832 3.51723 17.4545 3.95328 16.9678C4.53683 16.3165 5.17653 15.4777 5.60497 14.5726C4.50012 13.9867 3.57756 13.2813 2.90141 12.3788C2.07305 11.2731 1.6665 9.94131 1.6665 8.33331Z" fill="#EAEAEA"/>
</svg>
