<svg width="20" height="20" viewBox="0 0 20 20" fill="none" xmlns="http://www.w3.org/2000/svg">
<path fill-rule="evenodd" clip-rule="evenodd" d="M13.7906 17.4229C13.9996 17.8321 13.8383 18.3371 13.4118 18.5082C11.655 19.2126 9.71591 19.3585 7.86216 18.9138C5.73769 18.4043 3.86506 17.1527 2.58172 15.3846C1.29838 13.6166 0.688713 11.4483 0.862586 9.27046C1.03646 7.09266 1.98243 5.04856 3.53005 3.50651C5.07767 1.96446 7.12516 1.02586 9.30357 0.859833C11.482 0.693808 13.6481 1.31128 15.4115 2.60099C17.1749 3.89069 18.4198 5.76782 18.9217 7.89411C19.0857 8.58908 19.1669 9.29572 19.1669 9.99998L19.1669 10.0018C19.1668 10.4763 19.1298 10.9496 19.0566 11.4176C18.8233 13.1442 18.0967 15.8333 15.8335 15.8333C13.8892 15.8333 13.241 14.7224 13.0249 13.9816C12.1851 14.6206 11.1369 15 10.0002 15C7.23876 15 5.00019 12.7614 5.00019 9.99998C5.00019 7.23856 7.23876 4.99998 10.0002 4.99998C12.7616 4.99998 15.0002 7.23856 15.0002 9.99998C15.0002 9.99998 15.0002 11.6666 14.999 13.3333C15.0002 14.1666 15.4169 14.1666 15.4169 14.1666C16.1893 14.1666 16.6762 13.5306 16.9827 12.7555C16.9903 12.7291 16.9991 12.7028 17.009 12.6768C17.0439 12.5855 17.077 12.4936 17.1082 12.4012C17.4679 11.2652 17.5002 9.99998 17.5002 9.99998H17.5028C17.5028 9.42357 17.4364 8.8452 17.3021 8.2764C16.8913 6.5361 15.8725 4.99974 14.4292 3.94416C12.9858 2.88858 11.213 2.3832 9.43003 2.51908C7.64707 2.65497 5.97127 3.42318 4.7046 4.6853C3.43793 5.94742 2.66368 7.62044 2.52137 9.40289C2.37906 11.1853 2.87805 12.96 3.92842 14.4071C4.97879 15.8542 6.51148 16.8786 8.25029 17.2957C9.71818 17.6477 11.2515 17.5475 12.6517 17.0184C13.0816 16.856 13.5816 17.0136 13.7906 17.4229ZM6.66522 9.99998C6.66522 11.8418 8.15833 13.335 10.0002 13.335C11.842 13.335 13.3352 11.8418 13.3352 9.99998C13.3352 8.15813 11.842 6.66501 10.0002 6.66501C8.15833 6.66501 6.66522 8.15813 6.66522 9.99998Z" fill="#EAEAEA"/>
</svg>
