<svg width="30" height="30" viewBox="0 0 30 30" fill="none" xmlns="http://www.w3.org/2000/svg">
<path d="M11.7349 20.875C11.2489 20.875 11.3315 20.6915 11.1639 20.2288L9.73486 15.5259L20.7349 9" fill="#C8DAEA"/>
<path d="M11.7349 20.875C12.1099 20.875 12.2755 20.7035 12.4849 20.5L14.4849 18.5553L11.9901 17.0509" fill="#A9C9DD"/>
<path d="M11.9903 17.0512L18.0353 21.5173C18.7251 21.898 19.2229 21.7008 19.3948 20.877L21.8554 9.28159C22.1073 8.27159 21.4704 7.81334 20.8104 8.11296L6.36164 13.6843C5.37539 14.08 5.38126 14.6302 6.18189 14.8753L9.88976 16.0327L18.4739 10.6171C18.8791 10.3713 19.2511 10.5033 18.9459 10.7743" fill="url(#paint0_linear_1418_98)"/>
<defs>
<linearGradient id="paint0_linear_1418_98" x1="16.3657" y1="14.0012" x2="18.7067" y2="19.3348" gradientUnits="userSpaceOnUse">
<stop stop-color="#EFF7FC"/>
<stop offset="1" stop-color="white"/>
</linearGradient>
</defs>
</svg>
