<svg width="16" height="16" viewBox="0 0 16 16" fill="none" xmlns="http://www.w3.org/2000/svg">
<g clip-path="url(#clip0_1001_2013)">
<path d="M1.43767 3.75781C1.92986 3.75781 2.67986 3.75781 3.10174 3.75781C3.31267 3.75781 3.47674 3.89844 3.54705 4.08594C3.75799 4.69531 4.22674 6.03125 4.7658 6.94531C5.49236 8.14063 5.96111 8.58594 6.2658 8.53906C6.57049 8.46875 6.47674 7.67188 6.47674 7.03906C6.47674 6.40625 6.54705 5.32813 6.24236 4.83594L5.77361 4.15625C5.65642 3.99219 5.77361 3.78125 5.96111 3.78125H8.63299C8.8908 3.78125 9.10174 3.99219 9.10174 4.25V7.64844C9.10174 7.64844 9.21892 8.25781 9.87517 7.625C10.5314 6.99219 11.2345 5.82031 11.8205 4.625L12.0549 4.0625C12.1252 3.89844 12.2892 3.78125 12.4767 3.78125H14.2111C14.5392 3.78125 14.7736 4.10938 14.6564 4.41406L14.4689 4.90625C14.4689 4.90625 13.8361 6.17188 13.1799 7.0625C12.5236 7.97656 12.383 8.1875 12.4767 8.42188C12.5705 8.65625 14.258 10.2266 14.6799 10.9766C14.797 11.1875 14.8908 11.375 14.9845 11.5391C15.1486 11.8438 14.9142 12.2422 14.5627 12.2422H12.5939C12.4299 12.2422 12.2658 12.1484 12.1955 12.0078L12.008 11.7031C12.008 11.7031 10.8127 10.2969 10.0861 9.85156C9.33611 9.42969 9.35955 10.0391 9.35955 10.0391V11.2812C9.35955 11.7969 8.93767 12.2188 8.42205 12.2188H7.9533C7.9533 12.2188 5.37517 12.2188 3.31267 9.14844C1.69549 6.75781 1.15642 5.21094 0.968923 4.32031C0.922048 4.03906 1.13299 3.75781 1.43767 3.75781Z" fill="#EBEBEB"/>
</g>
<defs>
<clipPath id="clip0_1001_2013">
<rect width="15" height="15" fill="white" transform="translate(0.5 0.5)"/>
</clipPath>
</defs>
</svg>
